<?xml version="1.0" encoding="utf-8"?>
<!-- Generator: Adobe Illustrator 24.1.2, SVG Export Plug-In . SVG Version: 6.00 Build 0)  -->
<svg version="1.1" id="Layer_1" xmlns="http://www.w3.org/2000/svg" xmlns:xlink="http://www.w3.org/1999/xlink" x="0px" y="0px"
	 viewBox="0 0 120 120" style="enable-background:new 0 0 120 120;" xml:space="preserve">
<path d="M96.1,104.6c-6.8,0-9.3,1.1-23.2-15.7C90,83,94.9,60.4,69.6,49.1c-8.4-5-16.7-9.5-16.7-19.5c0-6.7,3.4-14,13.6-14
	c11.3,0,15.7,8.9,16.3,15.7c0.1,0.7,1.4,0.7,1.4,0l-1.1-12.4c0-0.8-0.6-1.5-1.8-2C61.6,8.4,46.5,19.8,47,33c-2.1,0-4.6,0-7.2,0
	c-7.4,0-15.1-0.4-14,1.1c8.9,0,10.4,1.4,10.4,8.1v54.4c0,6.8-1.7,8.1-10.6,8.1c-1.1,1.5,6.3,1.4,13.6,1.4c7.4,0,14.7,0.1,13.6-1.4
	c-9,0-10.4-1.3-10.4-8.1V69.9l4.1-4l12.7,15.8l5.9,7.3c14.6,18.1,9.7,17,17.6,17h13.2C96.5,106,96.5,104.6,96.1,104.6z M42.5,67.2
	V42.4c0-4.8,0.8-7,4.6-7.9c0.7,5.7,4.4,11.6,12,16.2L42.5,67.2z M51.1,61.7c2.7-2.4,6.1-6.1,9.9-9.9c0.8,0.4,1.7,0.9,2.6,1.3
	c8.6,5,17.1,10,17.1,21.4c0,7.7-4,11.6-8.9,13.2c-1.2-1.5-2.5-3.1-3.9-4.9L51.1,61.7z"/>
</svg>
